<svg xmlns="http://www.w3.org/2000/svg" viewBox="0 0 500 500"><g id="freepik--background-simple--inject-105"><path d="M423.85,391.72c73.82-77.93,44.87-231-41.85-287.72-55-36-80-58-133-74S121,45,102,86s8,96-23,143S37,342,64,387s104,83,180.93,85c43.88,1.15,89.06-9.92,126.65-32.83,20.67-12.59,34.89-29.45,51.36-46.51C423.25,392.35,423.55,392,423.85,391.72Z" style="fill:#92E3A9"></path><path d="M423.85,391.72c73.82-77.93,44.87-231-41.85-287.72-55-36-80-58-133-74S121,45,102,86s8,96-23,143S37,342,64,387s104,83,180.93,85c43.88,1.15,89.06-9.92,126.65-32.83,20.67-12.59,34.89-29.45,51.36-46.51C423.25,392.35,423.55,392,423.85,391.72Z" style="fill:#fff;opacity:0.7000000000000001"></path></g><g id="freepik--Bats--inject-105"><path d="M452.37,294.78s-8.63-6.19-11.12-6.84c-.31-.08-.69-.17-1.13-.26l-1.45-.27-1.67-.27-.9-.13-1.84-.23a46.1,46.1,0,0,0-5.79-.4,11.5,11.5,0,0,0-5.05,1,13.19,13.19,0,0,0,.73-1.17c.29-.54,1.77-1.11,1.77-1.11a6.54,6.54,0,0,0-3.29,1.57c-1.27,1.27-3.09,4.12-7.48,7.74a17.8,17.8,0,0,1-3.79,2.52c1.19-1.25,2.16-3.88,2.58-5s.44-2.82.25-2.57a13.08,13.08,0,0,1-2.78,2.54,31,31,0,0,1-4.18,1.79s-.85-1.94-2.32-2.32a5.13,5.13,0,0,0-2.31-.17l-.1-.2a10.47,10.47,0,0,1-.52-4.16c.27-1.84.91-3,.59-3.1s-1,.9-1.8,2.09c-.07-4,.44-6.46.46-7.94a6.5,6.5,0,0,0-1.17-3.44,4.75,4.75,0,0,1,.44,2c-.05.14-.09.3-.13.45s-.11.45-.15.62l-.05.27a11.45,11.45,0,0,0-2.8-4.32,67.46,67.46,0,0,0-10.05-8.05,17.81,17.81,0,0,0-3.91-1.33c-1-.27-2.16-.52-3.24-.76l-1.07-.23-3.13-.62-1.31-.24.1.08h0a10.22,10.22,0,0,0,2.16,1.36c1.05.42,4.83,4.78,5.16,8s-2.41,6.48-2.41,6.48,5.81,2.55,6.26,7.13a14.43,14.43,0,0,1-2.12,8.47s9.59.58,13.25,5.62a8.09,8.09,0,0,1,.8,1.36c0,.24-.09.48-.13.7a5.87,5.87,0,0,0,.12,2.59,5.32,5.32,0,0,1-2.79,2s4.95,3.38,4.62,7.22l.33-.6a4.82,4.82,0,0,1,5.66-2.34,7.73,7.73,0,0,1,1.1.43s-2.82-5.14,3.34-6.05,13.28,5.55,13.28,5.55a14.43,14.43,0,0,1,4.58-7.44c3.59-2.87,9.47-.5,9.47-.5s.39-4.2,3-6.25,8.33-2.39,9.36-1.94a10.8,10.8,0,0,0,2.59.62Z" style="fill:#263238"></path><path d="M186.66,76.86s-7.9-7.11-10.3-8l-1.09-.38L173.86,68c-.51-.15-1.07-.3-1.64-.45l-.87-.23-1.81-.43a46.89,46.89,0,0,0-5.71-1,11.5,11.5,0,0,0-5.13.45s.51-.59.86-1.09,1.88-.9,1.88-.9A6.5,6.5,0,0,0,158,65.52c-1.41,1.13-3.53,3.75-8.29,6.87a18.85,18.85,0,0,1-4.05,2.09,17.18,17.18,0,0,0,3.12-4.7c.59-1.18.75-2.76.53-2.52a12.89,12.89,0,0,1-3.05,2.21,30.18,30.18,0,0,1-4.34,1.32s-.63-2-2.06-2.56a4.93,4.93,0,0,0-2.28-.42l-.07-.22a10.48,10.48,0,0,1-.06-4.19c.48-1.8,1.24-2.91.93-3s-1.07.78-2,1.87c.37-4,1.15-6.37,1.34-7.83a6.6,6.6,0,0,0-.79-3.56,4.78,4.78,0,0,1,.22,2.08,2.77,2.77,0,0,0-.18.43c-.09.22-.16.44-.22.6l-.08.26a11.51,11.51,0,0,0-2.31-4.6,68,68,0,0,0-9.09-9.11,17.82,17.82,0,0,0-3.74-1.75c-1-.38-2.09-.76-3.15-1.12l-1-.34c-1.18-.39-2.26-.72-3-1L113,36l.09.09h0a9.65,9.65,0,0,0,2,1.59c1,.53,4.27,5.28,4.24,8.57s-3.11,6.18-3.11,6.18,5.49,3.17,5.43,7.78a14.44,14.44,0,0,1-3,8.18s9.46,1.63,12.54,7a8.1,8.1,0,0,1,.66,1.44c-.08.23-.15.46-.22.68a5.92,5.92,0,0,0-.16,2.59,5.3,5.3,0,0,1-3,1.64s4.55,3.9,3.8,7.69l.39-.57a4.82,4.82,0,0,1,5.88-1.7,7,7,0,0,1,1,.55s-2.24-5.42,4-5.64,12.58,7,12.58,7a14.42,14.42,0,0,1,5.37-6.88c3.89-2.46,9.47.54,9.47.54s.85-4.13,3.63-5.88,8.55-1.46,9.52-.89a10.4,10.4,0,0,0,2.51.89Z" style="fill:#263238"></path><path d="M140.34,313.77s-5.25-4.74-6.86-5.35c-.2-.08-.44-.16-.72-.25s-.6-.19-.94-.29l-1.09-.3-.58-.15-1.21-.29a33.31,33.31,0,0,0-3.8-.7,7.66,7.66,0,0,0-3.42.31s.34-.4.57-.73,1.26-.6,1.26-.6a4.38,4.38,0,0,0-2.3.79,39.2,39.2,0,0,1-5.52,4.58,12.34,12.34,0,0,1-2.69,1.39,11.37,11.37,0,0,0,2.07-3.13c.39-.78.5-1.84.36-1.68a8.77,8.77,0,0,1-2,1.47,19.93,19.93,0,0,1-2.9.88,2.93,2.93,0,0,0-1.37-1.7,3.2,3.2,0,0,0-1.51-.28l0-.15a7,7,0,0,1,0-2.79c.31-1.2.82-1.94.61-2s-.71.53-1.34,1.25c.24-2.63.77-4.24.89-5.22a4.39,4.39,0,0,0-.52-2.37,3.24,3.24,0,0,1,.14,1.39l-.12.29a3.86,3.86,0,0,0-.14.39l-.06.18a7.6,7.6,0,0,0-1.54-3.07,45.64,45.64,0,0,0-6-6.07,12.3,12.3,0,0,0-2.5-1.16c-.66-.25-1.39-.51-2.09-.74l-.69-.23-2-.65-.84-.25.06.06h0a6.83,6.83,0,0,0,1.33,1.06,9.53,9.53,0,0,1,2.82,5.71c0,2.19-2.07,4.11-2.07,4.11s3.65,2.12,3.62,5.18a9.56,9.56,0,0,1-2,5.45s6.31,1.09,8.36,4.7a5.51,5.51,0,0,1,.43,1c0,.15-.09.31-.14.46a3.92,3.92,0,0,0-.11,1.72,3.55,3.55,0,0,1-2,1.09s3,2.6,2.53,5.12l.26-.38a3.22,3.22,0,0,1,3.92-1.13,5.1,5.1,0,0,1,.7.37s-1.5-3.61,2.65-3.76S120,321.9,120,321.9a9.57,9.57,0,0,1,3.57-4.58c2.6-1.64,6.31.36,6.31.36s.57-2.75,2.42-3.92,5.69-1,6.34-.59a7.12,7.12,0,0,0,1.67.59Z" style="fill:#263238"></path><path d="M118.36,334.51a29.75,29.75,0,0,0-5.21.63l-.41.2-.53.28-.59.34-.31.18-.64.39a19.92,19.92,0,0,0-1.92,1.32,4.56,4.56,0,0,0-1.33,1.59,4.79,4.79,0,0,0-.07-.56,2,2,0,0,1,.28-.79,2.66,2.66,0,0,0-.64,1.32,23.63,23.63,0,0,1-.41,4.3,7.17,7.17,0,0,1-.56,1.75,6.78,6.78,0,0,0-.44-2.22c-.17-.51-.57-1-.57-.87a5,5,0,0,1-.24,1.49,12.53,12.53,0,0,1-.86,1.61,1.76,1.76,0,0,0-1.31-.15,2,2,0,0,0-.77.53l-.08,0a4.25,4.25,0,0,1-1.2-1.17c-.38-.65-.48-1.18-.6-1.13a2.62,2.62,0,0,0,0,1.11A31.65,31.65,0,0,1,98.07,342a2.65,2.65,0,0,0-1.23-.79s.56.31.65.53a1.34,1.34,0,0,0,.07.18l.11.23,0,.1a4.57,4.57,0,0,0-2-.66,27.16,27.16,0,0,0-5.18,0,7.37,7.37,0,0,0-1.56.56l-1.21.58-.39.19-1.14.59-.47.25h0a4.41,4.41,0,0,0,1-.11,5.77,5.77,0,0,1,3.64,1.23,4.14,4.14,0,0,1,.87,2.64s2.46-.65,3.75.67a5.81,5.81,0,0,1,1.45,3.2s3.16-2.22,5.57-1.56a3.42,3.42,0,0,1,.6.23c0,.09.09.17.13.25a2.32,2.32,0,0,0,.69.79,2.12,2.12,0,0,1-.39,1.31s2.4-.18,3.26,1.11l0-.27a1.94,1.94,0,0,1,1.19-2.15,3,3,0,0,1,.46-.15,1.55,1.55,0,0,1-.47-2.73c1.71-1.83,5.57-1.58,5.57-1.58a5.81,5.81,0,0,1-.43-3.49c.41-1.8,2.85-2.53,2.85-2.53a4.1,4.1,0,0,1-.64-2.7,5.68,5.68,0,0,1,2.46-2.95,4.66,4.66,0,0,0,1-.46Z" style="fill:#263238"></path><path d="M391.34,317.05a30,30,0,0,0-5.21.64l-.42.2-.52.28-.59.33-.32.18-.63.39a17.18,17.18,0,0,0-1.92,1.33A4.59,4.59,0,0,0,380.4,322s0-.31-.07-.55a1.94,1.94,0,0,1,.28-.79A2.6,2.6,0,0,0,380,322a23.78,23.78,0,0,1-.41,4.31A7.06,7.06,0,0,1,379,328a6.82,6.82,0,0,0-.45-2.22c-.16-.5-.57-1-.56-.87a5.26,5.26,0,0,1-.24,1.49,11.84,11.84,0,0,1-.86,1.61,1.78,1.78,0,0,0-1.31-.14,2.1,2.1,0,0,0-.77.52l-.08,0a4.21,4.21,0,0,1-1.21-1.17c-.37-.65-.47-1.18-.59-1.12a2.54,2.54,0,0,0,0,1.1,31.65,31.65,0,0,1-1.84-2.61,2.64,2.64,0,0,0-1.24-.78s.57.3.65.53c0,.05.05.11.08.17a1.67,1.67,0,0,0,.11.23.39.39,0,0,0,.05.1,4.67,4.67,0,0,0-2-.65,27.1,27.1,0,0,0-5.17,0,7,7,0,0,0-1.56.57c-.39.17-.81.37-1.21.57l-.39.2-1.14.58-.47.26h0a4,4,0,0,0,1-.12,5.71,5.71,0,0,1,3.63,1.24,4.06,4.06,0,0,1,.87,2.64s2.46-.66,3.76.67a5.77,5.77,0,0,1,1.45,3.19s3.16-2.22,5.57-1.55a3.05,3.05,0,0,1,.59.22c0,.09.09.18.14.26a2.37,2.37,0,0,0,.68.78,2.07,2.07,0,0,1-.38,1.31s2.4-.18,3.26,1.12l-.05-.28a1.93,1.93,0,0,1,1.19-2.15,3.62,3.62,0,0,1,.46-.14,1.56,1.56,0,0,1-.47-2.74c1.71-1.83,5.56-1.58,5.56-1.58a5.82,5.82,0,0,1-.42-3.48c.41-1.8,2.85-2.53,2.85-2.53a4.14,4.14,0,0,1-.64-2.71,5.71,5.71,0,0,1,2.45-2.95,3.79,3.79,0,0,0,1-.46Z" style="fill:#263238"></path><path d="M365.34,54.05a30,30,0,0,0-5.21.64l-.42.2-.52.28-.59.33-.32.18-.63.39a17.18,17.18,0,0,0-1.92,1.33A4.59,4.59,0,0,0,354.4,59s0-.31-.07-.55a1.94,1.94,0,0,1,.28-.79A2.6,2.6,0,0,0,354,59a23.78,23.78,0,0,1-.41,4.31A7.06,7.06,0,0,1,353,65a6.82,6.82,0,0,0-.45-2.22c-.16-.5-.57-1-.56-.87a5.26,5.26,0,0,1-.24,1.49,11.84,11.84,0,0,1-.86,1.61,1.78,1.78,0,0,0-1.31-.14,2.1,2.1,0,0,0-.77.52l-.08,0a4.21,4.21,0,0,1-1.21-1.17c-.37-.65-.47-1.18-.59-1.12a2.54,2.54,0,0,0,0,1.1,31.65,31.65,0,0,1-1.84-2.61,2.64,2.64,0,0,0-1.24-.78s.57.3.65.53c0,.05.05.11.08.17a1.67,1.67,0,0,0,.11.23.39.39,0,0,0,.05.1,4.67,4.67,0,0,0-2-.65,27.1,27.1,0,0,0-5.17,0,7,7,0,0,0-1.56.57c-.39.17-.81.37-1.21.57l-.39.2-1.14.58-.47.26h0a4,4,0,0,0,1-.12,5.71,5.71,0,0,1,3.63,1.24,4.06,4.06,0,0,1,.87,2.64s2.46-.66,3.76.67a5.77,5.77,0,0,1,1.45,3.19s3.16-2.22,5.57-1.55a3.05,3.05,0,0,1,.59.22c0,.09.09.18.14.26a2.37,2.37,0,0,0,.68.78,2.07,2.07,0,0,1-.38,1.31s2.4-.18,3.26,1.12l-.05-.28a1.93,1.93,0,0,1,1.19-2.15,3.62,3.62,0,0,1,.46-.14,1.56,1.56,0,0,1-.47-2.74c1.71-1.83,5.56-1.58,5.56-1.58a5.82,5.82,0,0,1-.42-3.48c.41-1.8,2.85-2.53,2.85-2.53a4.14,4.14,0,0,1-.64-2.71,5.71,5.71,0,0,1,2.45-3,3.79,3.79,0,0,0,1-.46Z" style="fill:#263238"></path></g><g id="freepik--Character--inject-105"><polygon points="246.08 212.5 252.37 419.93 263.59 419.48 253.19 212.87 246.08 212.5" style="fill:#7d7d7d;stroke:#263238;stroke-linecap:round;stroke-linejoin:round"></polygon><polygon points="134.86 204.53 124.92 187.54 117.55 193.95 129.41 211.26 134.86 204.53" style="fill:#7d7d7d;stroke:#263238;stroke-linecap:round;stroke-linejoin:round"></polygon><polygon points="136.14 185.94 111.45 204.21 104.72 169.26 112.1 164.78 136.14 185.94" style="fill:#92E3A9;stroke:#263238;stroke-linecap:round;stroke-linejoin:round"></polygon><path d="M75.09,173.08s-14.67,6.16-14.67,7.58.95,8.52.95,8.52l12.78-1.42s4.26-8.52,4.26-10.42S77.93,175.45,75.09,173.08Z" style="fill:#263238;stroke:#263238;stroke-linecap:round;stroke-linejoin:round"></path><path d="M42.08,186.26s-6.19,28.64-1.63,34.82,4.88-23.43,4.55-33.52-9.76,7.49-9.76,25.06,12.31-2,13-13l.71-11" style="fill:none;stroke:#263238;stroke-linejoin:round;stroke-width:2px"></path><path d="M105.86,156c-4.26-4.73-24.14,1-30.77,1s-29.34-6.16-30.29-2.84,0,8-2.84,16.57-7.58,13.72-2.84,14.67c3.65.73,14.9,5.12,19.86,7.09a9.16,9.16,0,0,0,5,.51c3.38-.6,9-1.7,11.14-2.65-.74,2.56-1.47,4.52-1.47,4.52s-7.57.94-9.46,3.79a13.85,13.85,0,0,1-4.74,4.26s11.36-2.37,13.73-2.37,5.21,2.84,9.47,1.89,1-7.57,2.37-10.89S95,176.87,95.45,173.08c0-.21,0-.42.07-.63,3.49-2.37,6.08-4.57,6.08-4.57l3.12,1.38,7.38-4.48A43.58,43.58,0,0,0,105.86,156ZM76,179.24s-1.89,4.73-3.31,5.68-5.78.49-5.78.49l1.5-6c3.13-.11,5.56-.2,7.49-.29l.1.12c.65.78.76,2.31.59,4.13C76.42,181.14,76,179.24,76,179.24Z" style="fill:#92E3A9;stroke:#263238;stroke-linecap:round;stroke-linejoin:round"></path><path d="M52.33,177.91a65.21,65.21,0,0,1,4.78,5.59l5-3,2.25,2.63v-5.25l4.31-2.72-5.81-2.9s8.25-2.25,12.75-1.88c3.36.28,5.26,4.75,5.69,8.4,2.7-.25,1.91-.5,3.78-1a25.49,25.49,0,0,0,4.8-1.95c1.12-6.68,2.25-12.59,5.22-14.08s9-6,10.87-2.63,6.17,5.62,6.17,5.62a43.58,43.58,0,0,0-6.24-8.74c-4.26-4.73-24.14,1-30.77,1s-29.34-6.16-30.29-2.84,0,8-2.84,16.57c-1.84,5.52-4.46,9.63-4.8,12.12l2,2.55,7.57-5.68S50.08,175.66,52.33,177.91Z" style="opacity:0.30000000000000004"></path><path d="M95.53,172.45c3.48-2.37,6.07-4.57,6.07-4.57l3.12,1.38,7.38-4.48a43.58,43.58,0,0,0-6.24-8.74c-4.26-4.73-24.14,1-30.77,1s-29.34-6.16-30.29-2.84,0,8-2.84,16.57-7.58,13.72-2.84,14.67c3.65.73,14.9,5.12,19.86,7.09a9.16,9.16,0,0,0,5,.51c3.64-.65,9.49-1.66,11.14-2.65" style="fill:none;stroke:#263238;stroke-linecap:round;stroke-linejoin:round"></path><rect x="51.89" y="225.77" width="37.25" height="55.49" style="fill:#fff;stroke:#263238;stroke-linecap:round;stroke-linejoin:round"></rect><rect x="58.73" y="225.77" width="23.56" height="55.49" style="fill:none;stroke:#263238;stroke-linecap:round;stroke-linejoin:round"></rect><rect x="48.47" y="222.35" width="44.09" height="9.5" style="fill:#263238;stroke:#263238;stroke-linecap:round;stroke-linejoin:round"></rect><rect x="57.97" y="215.13" width="25.08" height="9.5" style="fill:#263238;stroke:#263238;stroke-linecap:round;stroke-linejoin:round"></rect><rect x="49.99" y="279.93" width="41.05" height="4.75" style="fill:#263238;stroke:#263238;stroke-linecap:round;stroke-linejoin:round"></rect><line x1="71.27" y1="214.75" x2="71.27" y2="181.69" style="fill:none;stroke:#263238;stroke-linejoin:round;stroke-width:2px"></line><path d="M63.26,173.56S73.67,176.4,76,179.24s-2.37,15.62-2.37,15.62-7.57.94-9.46,3.79a13.85,13.85,0,0,1-4.74,4.26s11.36-2.37,13.73-2.37,5.21,2.84,9.47,1.89,1-7.57,2.37-10.89S95,176.87,95.45,173.08a70.17,70.17,0,0,0,.47-7.57" style="fill:none;stroke:#263238;stroke-linecap:round;stroke-linejoin:round"></path><path d="M56.16,191.07s-1.42-1.89,1-7.57.94-11.36,0-17.52,1.89-9,5.2-7.57a24.48,24.48,0,0,0,8,1.42" style="fill:none;stroke:#263238;stroke-linecap:round;stroke-linejoin:round"></path><path d="M57.58,156s-8-3.31-7.57,1.89-1.42,17-3.32,21.78-1.5,7.43,2.28,8.85" style="fill:none;stroke:#263238;stroke-linecap:round;stroke-linejoin:round"></path><line x1="101.6" y1="167.88" x2="105.86" y2="162.2" style="fill:#92E3A9;stroke:#263238;stroke-linecap:round;stroke-linejoin:round"></line><path d="M130.86,211.2,123,199l.67,6-10.12-4.38,4.12,7.71-29.34-2.66,24,8.66s-24,1.34-21.33,1.34,16.67,4.66,16.67,4.66H94.33l25.34,7.34Z" style="fill:#92E3A9"></path><polygon points="148.97 221.84 134.86 198.44 100.23 232.75 123 254.87 148.65 230.82 148.97 221.84" style="fill:#fff;stroke:#263238;stroke-linecap:round;stroke-linejoin:round"></polygon><path d="M113,233.67a3.34,3.34,0,1,1-3.33-3.34A3.33,3.33,0,0,1,113,233.67Z" style="fill:none;stroke:#263238;stroke-linecap:round;stroke-linejoin:round"></path><path d="M217.26,208.7l-50,42.32L149,221.85l-34.63,32.38,56.11,25,40.4-46.49s-9.3,64.76-14.11,82.72-5.13,24.68-5.13,24.68,12.82,10.9,18.92,15.07,34.3,16,34.3,16,2.89-39.11,2.89-59.31,2.56-63.48,2.56-63.48l.32-35.59Z" style="fill:#263238;stroke:#263238;stroke-linecap:round;stroke-linejoin:round"></path><polygon points="209.22 283.75 215.64 321.66 234.92 305.6 222.07 276.68 209.22 283.75" style="fill:#92E3A9;stroke:#263238;stroke-linecap:round;stroke-linejoin:round"></polygon><line x1="213" y1="288.55" x2="207.17" y2="293.62" style="fill:none;stroke:#fff;stroke-linecap:round;stroke-linejoin:round"></line><line x1="213.25" y1="293.88" x2="209.7" y2="297.43" style="fill:none;stroke:#fff;stroke-linecap:round;stroke-linejoin:round"></line><line x1="215.79" y1="304.27" x2="210.21" y2="309.09" style="fill:none;stroke:#fff;stroke-linecap:round;stroke-linejoin:round"></line><line x1="216.29" y1="314.41" x2="210.97" y2="316.95" style="fill:none;stroke:#fff;stroke-linecap:round;stroke-linejoin:round"></line><line x1="218.58" y1="314.67" x2="219.08" y2="320.5" style="fill:none;stroke:#fff;stroke-linecap:round;stroke-linejoin:round"></line><line x1="223.14" y1="312.13" x2="225.68" y2="318.22" style="fill:none;stroke:#fff;stroke-linecap:round;stroke-linejoin:round"></line><line x1="227.7" y1="307.06" x2="231.25" y2="311.37" style="fill:none;stroke:#fff;stroke-linecap:round;stroke-linejoin:round"></line><line x1="229.73" y1="301.23" x2="235.06" y2="299.71" style="fill:none;stroke:#fff;stroke-linecap:round;stroke-linejoin:round"></line><line x1="227.2" y1="293.37" x2="234.3" y2="290.83" style="fill:none;stroke:#fff;stroke-linecap:round;stroke-linejoin:round"></line><line x1="224.91" y1="287.03" x2="228.21" y2="283.48" style="fill:none;stroke:#fff;stroke-linecap:round;stroke-linejoin:round"></line><line x1="220.86" y1="280.44" x2="226.94" y2="278.41" style="fill:none;stroke:#fff;stroke-linecap:round;stroke-linejoin:round"></line><line x1="219.34" y1="281.2" x2="217.05" y2="276.13" style="fill:none;stroke:#fff;stroke-linecap:round;stroke-linejoin:round"></line><line x1="215.79" y1="283.23" x2="213.51" y2="279.17" style="fill:none;stroke:#fff;stroke-linecap:round;stroke-linejoin:round"></line><line x1="212.24" y1="283.99" x2="207.42" y2="282.72" style="fill:none;stroke:#fff;stroke-linecap:round;stroke-linejoin:round"></line><path d="M161,273l-2,12,7.33-6.67L171,287l3.33-12s4.67,11.33,4.67,9.33-.67-8.66-.67-8.66l5.34,4.66L179,269.67l-9.33,2.66L168.33,269Z" style="fill:#92E3A9"></path><polygon points="368.94 204.53 378.88 187.54 386.25 193.95 374.39 211.26 368.94 204.53" style="fill:#7d7d7d;stroke:#263238;stroke-linecap:round;stroke-linejoin:round"></polygon><polyline points="373.67 207.67 380.33 198.33 380.33 205.67 387.67 197 385 207 401.67 197.67 394.33 209.67 401.67 209.67 394.33 216.33 407 216.33 389.67 225 374.39 211.26" style="fill:#92E3A9"></polyline><polygon points="367.65 185.94 392.34 204.21 399.07 169.26 391.7 164.78 367.65 185.94" style="fill:#92E3A9;stroke:#263238;stroke-linecap:round;stroke-linejoin:round"></polygon><path d="M391.7,164.78s-4.81-17-8-21.81-11.87-7.69-11.23-16.35,9.3-25,10.58-26.93-2.88,17.31-2.88,23.08.64,7.06,5.45,9.3a30.19,30.19,0,0,0,9.62,2.57s5.13-19.56,7.37-21.8,14.75,0,20.84,0,11.86,3.52,11.86,3.52-11.54.32-17.95,1.93-10.26,4.16-10.58,5.77-3.21,15.39-3.21,15.39,5.13,3.52,6.1,3.52S427,133,430.82,131.75s10.58,1,15.71,3.85,8.65,9,8.65,9-15.71-5.77-19.55-6.1-7.38,2.57-11.55,5.13-8.65,5.46-8.65,5.46,7.37,5.13,9.62,5.45,15.38.64,19.23,2.88,8,5.45,9,7.38a52.35,52.35,0,0,1,2.24,6.73s-9.29-6.41-15.39-7.7-15.06-3.84-17-3.2-9.62,2.56-11.86,3.52-12.18,5.13-12.18,5.13Z" style="fill:#92E3A9"></path><path d="M453.26,164.78c-1-1.93-5.13-5.13-9-7.38s-17-2.56-19.23-2.88-9.62-5.45-9.62-5.45,4.49-2.89,8.65-5.46,7.7-5.45,11.55-5.13,19.55,6.1,19.55,6.1-3.52-6.1-8.65-9-11.87-5.13-15.71-3.85S410.62,143,409.66,143s-6.1-3.52-6.1-3.52,2.89-13.79,3.21-15.39,4.17-4.17,10.58-5.77,17.95-1.93,17.95-1.93-5.77-3.52-11.86-3.52-18.59-2.25-20.84,0-7.37,21.8-7.37,21.8a30.19,30.19,0,0,1-9.62-2.57c-4.81-2.24-5.45-3.52-5.45-9.3s4.17-25,2.88-23.08S373.1,118,372.46,126.62s8,11.54,11.23,16.35a41.66,41.66,0,0,1,3.38,7.47l.64.23s-5.61-10.11.75-9.73,11.24,7.86,11.24,7.86l2.24,9s6.75-5.25,10.12-2.62,3,3,1.12,5.24c-1.41,1.69-4.1,3.18-3.24,4.29l1.32-.57c2.24-1,9.94-2.88,11.86-3.52s10.9,1.92,17,3.2,15.39,7.7,15.39,7.7A52.35,52.35,0,0,0,453.26,164.78Z" style="opacity:0.30000000000000004"></path><path d="M391.7,164.78s-4.81-17-8-21.81-11.87-7.69-11.23-16.35,9.3-25,10.58-26.93-2.88,17.31-2.88,23.08.64,7.06,5.45,9.3a30.19,30.19,0,0,0,9.62,2.57s5.13-19.56,7.37-21.8,14.75,0,20.84,0,11.86,3.52,11.86,3.52-11.54.32-17.95,1.93-10.26,4.16-10.58,5.77-3.21,15.39-3.21,15.39,5.13,3.52,6.1,3.52S427,133,430.82,131.75s10.58,1,15.71,3.85,8.65,9,8.65,9-15.71-5.77-19.55-6.1-7.38,2.57-11.55,5.13-8.65,5.46-8.65,5.46,7.37,5.13,9.62,5.45,15.38.64,19.23,2.88,8,5.45,9,7.38a52.35,52.35,0,0,1,2.24,6.73s-9.29-6.41-15.39-7.7-15.06-3.84-17-3.2-9.62,2.56-11.86,3.52-12.18,5.13-12.18,5.13Z" style="fill:none;stroke:#263238;stroke-linecap:round;stroke-linejoin:round"></path><polyline points="404.2 161.89 394.91 167.66 394.59 174.07" style="fill:none;stroke:#263238;stroke-linecap:round;stroke-linejoin:round"></polyline><polyline points="393.63 159.32 393.63 166.38 390.74 169.26" style="fill:none;stroke:#263238;stroke-linecap:round;stroke-linejoin:round"></polyline><path d="M403.56,139.45s-1,9.94-1,11.22" style="fill:none;stroke:#263238;stroke-linecap:round;stroke-linejoin:round"></path><path d="M404.85,141.69s2.56,10.26,2.88,11.22" style="fill:none;stroke:#263238;stroke-linecap:round;stroke-linejoin:round"></path><path d="M387.53,134s8.34,7.37,10.9,11.54.32,12.5-.32,13.78" style="fill:none;stroke:#263238;stroke-linecap:round;stroke-linejoin:round"></path><polygon points="354.83 221.84 368.94 198.44 403.56 232.75 380.8 254.87 355.15 230.82 354.83 221.84" style="fill:#fff;stroke:#263238;stroke-linecap:round;stroke-linejoin:round"></polygon><path d="M393.67,232.33a3.34,3.34,0,1,1-3.34-3.33A3.35,3.35,0,0,1,393.67,232.33Z" style="fill:none;stroke:#263238;stroke-linecap:round;stroke-linejoin:round"></path><path d="M286.54,208.7l50,42.32,18.28-29.17,34.63,32.38-56.11,25L293,232.75s9.3,64.76,14.11,82.72,5.13,24.68,5.13,24.68-12.83,10.9-18.92,15.07-34.3,16-34.3,16-2.89-39.11-2.89-59.31-2.57-63.48-2.57-63.48l-.32-35.59Z" style="fill:#263238;stroke:#263238;stroke-linecap:round;stroke-linejoin:round"></path><path d="M262.56,253.82a2.83,2.83,0,1,1-2.72-2.93A2.82,2.82,0,0,1,262.56,253.82Z" style="fill:#fff;stroke:#263238;stroke-linecap:round;stroke-linejoin:round"></path><path d="M263.9,275.48a2.83,2.83,0,1,1-2.72-2.94A2.82,2.82,0,0,1,263.9,275.48Z" style="fill:#fff;stroke:#263238;stroke-linecap:round;stroke-linejoin:round"></path><path d="M265.24,297.13a2.83,2.83,0,1,1-2.72-2.94A2.82,2.82,0,0,1,265.24,297.13Z" style="fill:#fff;stroke:#263238;stroke-linecap:round;stroke-linejoin:round"></path><path d="M266.58,318.78a2.83,2.83,0,1,1-2.73-2.93A2.84,2.84,0,0,1,266.58,318.78Z" style="fill:#fff;stroke:#263238;stroke-linecap:round;stroke-linejoin:round"></path><path d="M267.92,340.43a2.83,2.83,0,1,1-2.73-2.93A2.84,2.84,0,0,1,267.92,340.43Z" style="fill:#fff;stroke:#263238;stroke-linecap:round;stroke-linejoin:round"></path><path d="M250.6,215.11s7.06,20.84,13.47,31.74,18.59,13.47,37.19,21.16,27.25,14.43,29.82,23.09A72.36,72.36,0,0,1,334,306.49l19.88-15.71s2.25-9.62-7-22.12-30.46-17.32-43.61-21.17S276.57,233.07,272.4,227a33.73,33.73,0,0,1-5.13-12.51Z" style="fill:#8f8f8f;stroke:#263238;stroke-linecap:round;stroke-linejoin:round"></path><path d="M259.94,238.78l16.78-7a26.52,26.52,0,0,1-6.28-8.16l-14.66,5.39C257.05,232.22,258.47,235.59,259.94,238.78Z" style="fill:#92E3A9;stroke:#263238;stroke-linecap:round;stroke-linejoin:round"></path><path d="M346.79,268.66c-3.88-5.22-9.83-9.1-16.4-12.13l-22.17,14.54c11.23,5.26,17.82,10.24,21.09,15.93l18.88-16.34C347.75,270,347.29,269.33,346.79,268.66Z" style="fill:#92E3A9;stroke:#263238;stroke-linecap:round;stroke-linejoin:round"></path><path d="M303.18,247.49A61.57,61.57,0,0,1,288.91,241L270,253.69c4.2,3.41,9.63,5.81,16.3,8.44l19.45-13.9C304.86,248,304,247.74,303.18,247.49Z" style="fill:#92E3A9;stroke:#263238;stroke-linecap:round;stroke-linejoin:round"></path><path d="M266.63,215.75s22.13,13.15,35.59,10.9,25.33-16,39.12-28.21,15.07-15.39,38.47-10.26S405.14,210,405.14,210s7.7-18.59,9.62-26.61-3.85-12.5-24.37-19.56-40.08,1.61-51,11.87-35.58,29.49-42,31.42-17-3.53-17-3.53Z" style="fill:#8f8f8f;stroke:#263238;stroke-linecap:round;stroke-linejoin:round"></path><path d="M288.16,206.55l-9.59,15.15a77.05,77.05,0,0,0,12,4.09l5.88-18.47A19.59,19.59,0,0,1,288.16,206.55Z" style="fill:#92E3A9;stroke:#263238;stroke-linecap:round;stroke-linejoin:round"></path><path d="M324.41,188.51c-4.08,3.28-8.32,6.54-12.25,9.41v25c5.49-3.08,10.84-7.65,16.34-12.69Z" style="fill:#92E3A9;stroke:#263238;stroke-linecap:round;stroke-linejoin:round"></path><path d="M356.65,164.84A55.26,55.26,0,0,0,341,174.28L340.75,199l.59-.52c7.41-6.55,11.21-10.5,16.76-12Z" style="fill:#92E3A9;stroke:#263238;stroke-linecap:round;stroke-linejoin:round"></path><path d="M399.83,167.31c-2.72-1.11-5.85-2.26-9.44-3.5a46.39,46.39,0,0,0-10.85-2.34l-2.45,26.13,2.72.58a40.79,40.79,0,0,1,13.86,5.59Z" style="fill:#92E3A9;stroke:#263238;stroke-linecap:round;stroke-linejoin:round"></path><path d="M212.13,187.54s-1.93,18.27.32,20.84,16.35,11.54,27.25,13.79,26.93-1,33.67-6.74,11.22-7.37,12.82-9.94-2.24-16.67-2.56-19.87-12.83,5.77-32.71,4.48S213.09,183.37,212.13,187.54Z" style="fill:#8f8f8f;stroke:#263238;stroke-linecap:round;stroke-linejoin:round"></path><path d="M221.83,186.43l-2.33,27A89.13,89.13,0,0,0,231,219.33c.7-9.72,2.26-24.64,3-31.14C229.34,187.52,225.23,186.85,221.83,186.43Z" style="fill:#92E3A9;stroke:#263238;stroke-linecap:round;stroke-linejoin:round"></path><path d="M264.33,220.14,263,189.69a60.89,60.89,0,0,1-12.05.41c-1-.06-2-.14-3-.22l-1.21,33A54.59,54.59,0,0,0,264.33,220.14Z" style="fill:#92E3A9;stroke:#263238;stroke-linecap:round;stroke-linejoin:round"></path><path d="M286.19,205.49c1.6-2.56-2.24-16.67-2.56-19.87-.16-1.61-3.38-.16-9,1.52l1.66,26C281.38,209.17,284.83,207.67,286.19,205.49Z" style="fill:#92E3A9;stroke:#263238;stroke-linecap:round;stroke-linejoin:round"></path><path d="M222.6,206.09a67.8,67.8,0,0,0,25.75,5.19" style="fill:none;stroke:#263238;stroke-linecap:round;stroke-linejoin:round"></path><path d="M213,200.45a29.33,29.33,0,0,0,4.68,3.17" style="fill:none;stroke:#263238;stroke-linecap:round;stroke-linejoin:round"></path><path d="M282.93,193.37a71.79,71.79,0,0,1-16.67,8.33" style="fill:none;stroke:#263238;stroke-linecap:round;stroke-linejoin:round"></path><path d="M260.84,214.17c1.11-.23,2.23-.5,3.34-.8" style="fill:none;stroke:#263238;stroke-linecap:round;stroke-linejoin:round"></path><path d="M231.28,213.78A73.5,73.5,0,0,0,255,215.1" style="fill:none;stroke:#263238;stroke-linecap:round;stroke-linejoin:round"></path><path d="M233.29,92.9s7.41-8.64,10.29-16.46,7-13.58,11.52-12.76,15.64,8.24,15.23,14-2.88,7.82-6.59,6.17-5.76-6.17-2.47-6.58,1.65,3.7,3.71,2.88,1.64-4.94-1.24-8.23-7-2.06-8.64,1.23-3.29,7.41-1.65,11.11,4.53,9,4.53,9a63.47,63.47,0,0,1-14.81,2.06C235.76,95.37,233.29,92.9,233.29,92.9Z" style="fill:#263238;stroke:#263238;stroke-linecap:round;stroke-linejoin:round"></path><path d="M240.29,91.67s-6.15,1.56-7,1.23c-3.4-1.31-9.72-3.7-28.81,2.88-23.87,8.23-32.62,38.06-30.5,57.77,2.88,26.94,28,38.53,37.09,40.18l9.05,1.64s15,7.6,31.69,5.77c15.79-1.74,21.4-7.41,21.4-7.41s24.69-3.71,35-24.28,8.23-36.22,2.06-50.62S282.67,92.9,274.44,92.08A55.12,55.12,0,0,0,258,93.31S253.87,90,240.29,91.67Z" style="fill:#92E3A9"></path><path d="M310.25,118.83c-6.18-14.4-27.58-25.93-35.81-26.75A55.12,55.12,0,0,0,258,93.31s-4.11-3.29-17.69-1.64c0,0-6.15,1.56-7,1.23-3.4-1.31-9.72-3.7-28.81,2.88-11.26,3.89-19.15,12.58-24.13,22.74l.11,2.59a26.61,26.61,0,0,1,15.82-16.48c12.53-4.62,16.49-3.3,16.49,2s-2.64,11.87,2.63,13.18-.66-12.52,18.46-19.78,34.95,22.42,38.91,19.78.66-13.84,7.25-16.48S299.8,114.52,299.8,135s-7.25,40.88-14.5,48.13-9.24,7.26-9.24,7.26-5.27,5.27-23.73,7.25c-9.28,1-18.55-1.51-25.48-4.24a72.62,72.62,0,0,1-11.45-5.65s4,7.25,8.57,8.57a73.45,73.45,0,0,1,6.87,3,57.93,57.93,0,0,0,21,1.89c15.79-1.74,21.4-7.41,21.4-7.41s24.69-3.71,35-24.28S316.42,133.23,310.25,118.83Z" style="opacity:0.30000000000000004"></path><path d="M240.29,91.67s-6.15,1.56-7,1.23c-3.4-1.31-9.72-3.7-28.81,2.88-23.87,8.23-32.62,38.06-30.5,57.77,2.88,26.94,28,38.53,37.09,40.18l9.05,1.64s15,7.6,31.69,5.77c15.79-1.74,21.4-7.41,21.4-7.41s24.69-3.71,35-24.28,8.23-36.22,2.06-50.62S282.67,92.9,274.44,92.08A55.12,55.12,0,0,0,258,93.31S253.87,90,240.29,91.67Z" style="fill:none;stroke:#263238;stroke-linecap:round;stroke-linejoin:round"></path><path d="M238.74,137.2l-30.46-15.07s-.64,8,1.92,14.43a23.17,23.17,0,0,0,7.06,9.62Z" style="fill:#263238;stroke:#263238;stroke-linecap:round;stroke-linejoin:round"></path><path d="M214.49,125.2l-6.21-3.07s-.64,8,1.92,14.43a23.17,23.17,0,0,0,7.06,9.62l5.77-2.41C218.32,137.45,215.67,129.49,214.49,125.2Z" style="fill:#7d7d7d;stroke:#263238;stroke-linecap:round;stroke-linejoin:round"></path><path d="M257.66,137.2l30.46-15.07s.64,8-1.93,14.43a23.1,23.1,0,0,1-7.05,9.62Z" style="fill:#263238;stroke:#263238;stroke-linecap:round;stroke-linejoin:round"></path><path d="M269.86,137.06a2.53,2.53,0,1,0-2.53,2.53A2.53,2.53,0,0,0,269.86,137.06Z" style="fill:#92E3A9;stroke:#fff;stroke-miterlimit:10"></path><path d="M230.15,137.06a2.53,2.53,0,1,0-2.53,2.53A2.53,2.53,0,0,0,230.15,137.06Z" style="fill:#92E3A9;stroke:#fff;stroke-miterlimit:10"></path><path d="M281.91,125.2l6.21-3.07s.64,8-1.93,14.43a23.1,23.1,0,0,1-7.05,9.62l-5.77-2.41C278.08,137.45,280.73,129.49,281.91,125.2Z" style="fill:#7d7d7d;stroke:#263238;stroke-linecap:round;stroke-linejoin:round"></path><polygon points="251.88 140.09 241.63 141.05 247.4 150.03 251.88 140.09" style="fill:#263238;stroke:#263238;stroke-linecap:round;stroke-linejoin:round"></polygon><path d="M203.15,153.87l11.54,7.7,9-6.41,13.15,9.62,15.39-8.34L267.27,167,278.5,154.2l7.69,4.8,13.47-16-6.41,28.22L280.1,168l-11.86,12.19L252.53,175l-15.39,7.37-15.07-9.94-10.58,4.17S203.79,161.57,203.15,153.87Z" style="fill:#263238;stroke:#263238;stroke-linecap:round;stroke-linejoin:round"></path><polygon points="222.07 172.47 237.14 182.41 243.29 179.46 226.56 169.59 222.07 172.47" style="fill:#7d7d7d;stroke:#263238;stroke-linecap:round;stroke-linejoin:round"></polygon><path d="M210.75,158.94l-7.6-5.07c.64,7.7,8.34,22.77,8.34,22.77l6.65-2.62A74.14,74.14,0,0,1,210.75,158.94Z" style="fill:#7d7d7d;stroke:#263238;stroke-linecap:round;stroke-linejoin:round"></path><polygon points="274.65 165.74 262.61 178.33 268.24 180.16 280.1 167.98 274.65 165.74" style="fill:#7d7d7d;stroke:#263238;stroke-linecap:round;stroke-linejoin:round"></polygon><polygon points="294.19 149.48 288.36 170 293.25 171.19 299.66 142.97 294.19 149.48" style="fill:#7d7d7d;stroke:#263238;stroke-linecap:round;stroke-linejoin:round"></polygon><path d="M217.77,112a34.38,34.38,0,0,0-.83,3.36" style="fill:none;stroke:#263238;stroke-linecap:round;stroke-linejoin:round"></path><path d="M232.33,94.56s-8,3-12.77,12.82" style="fill:none;stroke:#263238;stroke-linecap:round;stroke-linejoin:round"></path><path d="M272.73,111.55c0-9.94-9.94-16.35-9.94-16.35" style="fill:none;stroke:#263238;stroke-linecap:round;stroke-linejoin:round"></path><path d="M205.08,182.73s5.42,9.76,15,12.64" style="fill:none;stroke:#263238;stroke-linecap:round;stroke-linejoin:round"></path><path d="M280.05,182.31c.34-1,.68-2,1-3.11" style="fill:none;stroke:#263238;stroke-linecap:round;stroke-linejoin:round"></path><path d="M273.21,193.73S276.05,192,279,185" style="fill:none;stroke:#263238;stroke-linecap:round;stroke-linejoin:round"></path></g></svg>